<svg width="226" height="65" viewBox="0 0 226 65" fill="none" xmlns="http://www.w3.org/2000/svg">
<path d="M45.7216 22.2135L25.8389 11.5156L29.6552 9.47916L49.1207 20.0833L54.2778 17.5052L29.6552 4.15624L15.7195 11.7344L34.7511 21.8958L29.5161 24.4115L10.9352 14.349L5.01038 17.5625L29.6552 30.724L45.7216 22.2135ZM55.93 29.2292L30.9014 42.875V49.0312C31.5522 48.625 53.9217 36.4375 55.93 35.3385V29.2292ZM55.93 19.2187L30.9959 32.6406L30.9014 32.6927V39.6927L55.93 26.2812V19.2187ZM55.93 39.1094L30.9014 52.651V58.9896L55.93 45.5208V39.1094ZM30.9014 49.0365V49.0312C30.8847 49.0417 30.8847 49.0469 30.9014 49.0365ZM28.3924 39.849V32.5729L3.66965 19.3125V45.8125L28.3924 58.9896V52.6354L9.32183 42.2708L9.29958 38.8125L28.3924 49.0417V42.9844L9.29958 32.6823V29.401L28.3924 39.849Z" fill="#C30533"/>
<path d="M29.7651 64.1823L0.152344 48.2031V16.2396L29.7651 0.260406L59.3778 16.2396V48.2031L29.7651 64.1823ZM1.90474 47.2552L29.7651 62.2917L57.631 47.2552V17.1823L29.7651 2.15103L1.90474 17.1823V47.2552ZM82.2925 43.6562V43.0989H78.1479V43.6562H79.9059V48.1458H80.5234V43.6562H82.2925ZM87.5163 43.6562V43.0989H83.8557V48.1458H87.622V47.5989H84.4732V45.8698H87.1936V45.3125H84.4732V43.6562H87.5163ZM91.2047 43.0781C90.0865 43.0781 89.341 43.5885 89.341 44.3802C89.341 46.1927 92.3785 45.4844 92.3729 46.8125C92.3729 47.2917 91.8834 47.5885 91.1045 47.5885C90.4982 47.5885 89.8139 47.3281 89.3076 46.875L89.035 47.3958C89.5413 47.8489 90.3146 48.1667 91.099 48.1667C92.2561 48.1667 93.0516 47.625 93.0516 46.7812C93.0572 44.9531 90.0197 45.6302 90.0197 44.3333C90.0197 43.9062 90.4759 43.6614 91.1657 43.6614C91.5997 43.6614 92.1727 43.7812 92.6567 44.0833L92.9181 43.5469C92.4731 43.2656 91.8333 43.0781 91.2047 43.0781ZM98.5091 43.6562V43.0989H94.3701V43.6562H96.1281V48.1458H96.7456V43.6562H98.5091ZM103.738 43.6562V43.0989H100.078V48.1458H103.839V47.5989H100.695V45.8698H103.416V45.3125H100.695V43.6562H103.738ZM105.68 43.0989V48.1458H107.839C109.424 48.1458 110.637 47.0573 110.637 45.6198C110.637 44.1875 109.435 43.0989 107.861 43.0989H105.68ZM106.298 43.6562H107.844C109.057 43.6562 110.014 44.5 110.014 45.6302C110.014 46.75 109.068 47.5989 107.866 47.5989H106.298V43.6562ZM112.328 47.4687C112.122 47.4687 111.966 47.6198 111.966 47.8281C111.966 47.9583 112.022 48.0729 112.139 48.1354L111.883 48.6614H112.222L112.584 48.1458C112.651 48.0417 112.701 47.9479 112.701 47.8333C112.701 47.6042 112.528 47.4687 112.328 47.4687ZM120.995 43.6562V43.0989H116.856V43.6562H118.614V48.1458H119.232V43.6562H120.995ZM126.091 48.1458H126.798L125.529 46.4271C126.308 46.1927 126.742 45.6302 126.742 44.7917C126.742 43.7187 125.963 43.0989 124.611 43.0989H122.564V48.1458H123.176V46.5521H124.611C124.734 46.5521 124.862 46.5469 124.973 46.5364L126.091 48.1458ZM123.176 45.9948V43.6562H124.611C125.591 43.6562 126.147 44.0417 126.147 44.8073C126.147 45.5937 125.591 45.9948 124.611 45.9948H123.176ZM133.207 43.0989H132.595V46.0677C132.595 47.0469 131.977 47.6198 130.948 47.6198C129.924 47.6198 129.29 47.0469 129.29 46.0677V43.0989H128.678V46.0677C128.678 47.3802 129.529 48.1719 130.948 48.1719C132.361 48.1719 133.207 47.3802 133.207 46.0677V43.0989ZM137.023 43.0781C135.905 43.0781 135.159 43.5885 135.159 44.3802C135.159 46.1927 138.197 45.4844 138.186 46.8125C138.186 47.2917 137.702 47.5885 136.923 47.5885C136.311 47.5885 135.627 47.3281 135.126 46.875L134.848 47.3958C135.36 47.8489 136.127 48.1667 136.917 48.1667C138.074 48.1667 138.864 47.625 138.864 46.7812C138.875 44.9531 135.832 45.6302 135.832 44.3333C135.832 43.9062 136.289 43.6614 136.984 43.6614C137.418 43.6614 137.985 43.7812 138.475 44.0833L138.736 43.5469C138.286 43.2656 137.646 43.0781 137.023 43.0781ZM144.327 43.6562V43.0989H140.188V43.6562H141.946V48.1458H142.564V43.6562H144.327ZM149.557 43.6562V43.0989H145.896V48.1458H149.657V47.5989H146.508V45.8698H149.234V45.3125H146.508V43.6562H149.557ZM151.493 43.0989V48.1458H153.657C155.242 48.1458 156.455 47.0573 156.455 45.6198C156.455 44.1875 155.253 43.0989 153.679 43.0989H151.493ZM152.11 43.6562H153.662C154.87 43.6562 155.826 44.5 155.826 45.6302C155.826 46.75 154.886 47.5989 153.685 47.5989H152.11V43.6562ZM158.141 47.4531C157.924 47.4531 157.762 47.6094 157.762 47.8281C157.762 48.0417 157.924 48.2031 158.141 48.2031C158.347 48.2031 158.508 48.0417 158.508 47.8281C158.508 47.6094 158.347 47.4531 158.141 47.4531ZM160.316 47.4531C160.099 47.4531 159.938 47.6094 159.938 47.8281C159.938 48.0417 160.099 48.2031 160.316 48.2031C160.522 48.2031 160.683 48.0417 160.683 47.8281C160.683 47.6094 160.522 47.4531 160.316 47.4531ZM162.491 47.4531C162.274 47.4531 162.113 47.6094 162.113 47.8281C162.113 48.0417 162.274 48.2031 162.491 48.2031C162.697 48.2031 162.864 48.0417 162.864 47.8281C162.864 47.6094 162.697 47.4531 162.491 47.4531ZM172.994 48.1458L174.808 43.0989H174.163L172.699 47.4739L171.22 43.0989L170.602 43.1042L169.139 47.4739L167.659 43.0989H166.992L168.8 48.1458H169.434L170.903 43.8906L172.36 48.1458H172.994ZM178.641 43.0833C177.055 43.0833 175.809 44.1927 175.809 45.6198C175.809 47.0417 177.055 48.1719 178.641 48.1719C180.21 48.1719 181.461 47.0417 181.461 45.6198C181.461 44.2031 180.21 43.0833 178.641 43.0833ZM178.641 43.6302C179.843 43.6302 180.827 44.5104 180.827 45.6198C180.827 46.7292 179.843 47.6198 178.641 47.6198C177.434 47.6198 176.432 46.7292 176.432 45.6198C176.432 44.5104 177.434 43.6302 178.641 43.6302ZM186.869 48.1458H187.57L186.301 46.4271C187.08 46.1927 187.514 45.6302 187.514 44.7917C187.514 43.7187 186.735 43.0989 185.383 43.0989H183.336V48.1458H183.954V46.5521H185.383C185.511 46.5521 185.634 46.5469 185.751 46.5364L186.869 48.1458ZM183.954 45.9948V43.6562H185.383C186.368 43.6562 186.919 44.0417 186.919 44.8073C186.919 45.5937 186.368 45.9948 185.383 45.9948H183.954ZM190.179 47.5989V43.0989H189.561V48.1458H192.549V47.5989H190.179ZM194.162 43.0989V48.1458H196.326C197.912 48.1458 199.125 47.0573 199.125 45.6198C199.125 44.1875 197.923 43.0989 196.348 43.0989H194.162ZM194.78 43.6562H196.332C197.539 43.6562 198.496 44.5 198.496 45.6302C198.496 46.75 197.556 47.5989 196.354 47.5989H194.78V43.6562ZM206.145 48.1458L207.959 43.0989H207.319L205.856 47.4739L204.371 43.0989L203.759 43.1042L202.29 47.4739L200.81 43.0989H200.148L201.951 48.1458H202.585L204.059 43.8906L205.517 48.1458H206.145ZM210.112 43.0989H209.494V48.1458H210.112V43.0989ZM212.409 43.0989V48.1458H214.568C216.159 48.1458 217.366 47.0573 217.366 45.6198C217.366 44.1875 216.164 43.0989 214.59 43.0989H212.409ZM213.027 43.6562H214.573C215.786 43.6562 216.743 44.5 216.743 45.6302C216.743 46.75 215.803 47.5989 214.601 47.5989H213.027V43.6562ZM222.918 43.6562V43.0989H219.258V48.1458H223.024V47.5989H219.875V45.8698H222.596V45.3125H219.875V43.6562H222.918ZM225.032 47.4531C224.815 47.4531 224.654 47.6094 224.654 47.8281C224.654 48.0417 224.815 48.2031 225.032 48.2031C225.238 48.2031 225.399 48.0417 225.399 47.8281C225.399 47.6094 225.238 47.4531 225.032 47.4531ZM86.7096 16.3906C82.2424 16.3906 79.2939 18.4271 79.2939 21.6354C79.2939 27.7969 89.1296 25.9583 89.1296 29.0364C89.1296 30.0312 88.195 30.5521 86.7096 30.5521C84.7681 30.5521 81.8975 29.5104 79.9838 27.9427L78.1479 31.3489C80.3565 33.0364 83.5442 34.1302 86.654 34.1302C90.8041 34.1302 94.0975 32.2917 94.0975 28.8177C94.0975 22.5312 84.2618 24.2448 84.2618 21.2396C84.2618 20.3906 85.0908 19.9687 86.3091 19.9687C87.8278 19.9687 90.2979 20.7135 92.2672 21.7812L94.0474 18.3281C92.1337 17.1614 89.3911 16.3906 86.7096 16.3906ZM112.806 20.0677V16.5885H98.2421V33.9844H113.101V30.5052H102.971V27H111.85V23.5208H102.971V20.0677H112.806ZM136.706 33.9844L128.867 16.5885H124L115.972 33.9844H120.84L122.191 30.776H130.325L131.654 33.9844H136.706ZM128.945 27.4219H123.577L126.286 20.9896L128.945 27.4219ZM159.125 33.9844L165.262 16.5885H160.427L156.839 29.3854L153.195 16.5885H148.572L145.006 29.3854L141.368 16.5885H136.316L142.402 33.9844H147.293L150.803 21.9583L154.258 33.9844H159.125ZM185.083 33.9844L177.239 16.5885H172.377L164.344 33.9844H169.211L170.569 30.776H178.702L180.032 33.9844H185.083ZM177.317 27.4219H171.948L174.658 20.9896L177.317 27.4219ZM203.586 22.651C203.586 18.776 200.766 16.5885 195.848 16.5885H187.531V33.9844H192.26V29.0885H195.981L198.746 33.9844H204.115L200.209 28.2448C202.39 27.2239 203.586 25.3125 203.586 22.651ZM199.091 22.8021C199.091 24.6406 197.895 25.6094 195.848 25.6094H192.26V20.0677H195.848C197.895 20.0677 199.091 20.9896 199.091 22.8021ZM225.399 25.2864C225.399 20.1198 221.36 16.5885 215.514 16.5885H207.508V33.9844H215.324C221.31 33.9844 225.399 30.4271 225.399 25.2864ZM220.593 25.3125C220.593 28.3698 218.518 30.4531 215.619 30.4531H212.242V20.1198H215.408C218.412 20.1198 220.593 22.2292 220.593 25.3125Z" fill="#C30533"/>
</svg>
